<?xml version="1.0" encoding="UTF-8"?>
<svg version="1.1" xmlns="http://www.w3.org/2000/svg" width="96" height="96">
<path d="M0 0 C31.68 0 63.36 0 96 0 C96 31.68 96 63.36 96 96 C64.32 96 32.64 96 0 96 C0 64.32 0 32.64 0 0 Z " fill="#D8D8D8" transform="translate(0,0)"/>
<path d="M0 0 C10.23 0 20.46 0 31 0 C31.02290196 7.67215605 31.0428312 15.34419447 31.05493164 23.01635742 C31.05997377 25.62866619 31.06680725 28.24097211 31.07543945 30.85327148 C31.08751036 34.59880268 31.09322935 38.34429672 31.09765625 42.08984375 C31.10281754 43.26586655 31.10797882 44.44188934 31.11329651 45.65354919 C31.11337204 46.73459427 31.11344757 47.81563934 31.11352539 48.92944336 C31.115746 49.88652695 31.11796661 50.84361053 31.12025452 51.82969666 C31 54 31 54 30 55 C27.70848583 55.08790975 25.41427476 55.10694038 23.12109375 55.09765625 C22.09110008 55.09553383 22.09110008 55.09553383 21.04029846 55.09336853 C18.83932199 55.08775479 16.63844591 55.07520007 14.4375 55.0625 C12.94856917 55.05748676 11.45963676 55.05292355 9.97070312 55.04882812 C6.31376925 55.03778093 2.65689442 55.02050713 -1 55 C0.19033644 51.27266004 1.50231705 47.73951643 3.19921875 44.21484375 C3.80540039 42.92416992 3.80540039 42.92416992 4.42382812 41.60742188 C5.26993981 39.81973303 6.12419325 38.03587619 6.98632812 36.25585938 C7.38658203 35.39669922 7.78683594 34.53753906 8.19921875 33.65234375 C8.56877686 32.87882568 8.93833496 32.10530762 9.3190918 31.30834961 C10.15171622 28.48566625 9.85678649 26.79142752 9 24 C7.52174744 22.38807595 7.52174744 22.38807595 5.625 21.25 C5.01914062 20.84265625 4.41328125 20.4353125 3.7890625 20.015625 C1.8669368 18.84823223 1.8669368 18.84823223 -1 18 C-0.505 9.09 -0.505 9.09 0 0 Z " fill="#FEFEFE" transform="translate(55,21)"/>
<path d="M0 0 C9.9 0 19.8 0 30 0 C29.22529799 3.87351004 28.49034081 6.45542965 26.8984375 9.94140625 C26.49109375 10.85470703 26.08375 11.76800781 25.6640625 12.70898438 C24.80189485 14.61751003 23.93466896 16.52375839 23.0625 18.42773438 C22.65773438 19.33974609 22.25296875 20.25175781 21.8359375 21.19140625 C21.46001465 22.01842041 21.0840918 22.84543457 20.69677734 23.69750977 C19.90986294 26.29785657 19.94546145 27.51369512 21 30 C23.31869204 31.46293963 23.31869204 31.46293963 26.0625 32.6875 C30.77349557 35.36893685 30.77349557 35.36893685 31.73046875 38.03515625 C31.7671032 42.18950314 30.7754755 46.23904712 29.953125 50.296875 C29.77426758 51.18213867 29.59541016 52.06740234 29.41113281 52.97949219 C29.27545898 53.64625977 29.13978516 54.31302734 29 55 C25.03069011 55.02465881 21.06140966 55.04284023 17.09204102 55.05493164 C15.74079614 55.05997057 14.38955674 55.06680177 13.03833008 55.07543945 C11.09979566 55.08752419 9.161222 55.09269828 7.22265625 55.09765625 C5.47094116 55.10551147 5.47094116 55.10551147 3.68383789 55.11352539 C1 55 1 55 0 54 C-0.09353163 52.31198015 -0.11744791 50.62004793 -0.11352539 48.92944336 C-0.11344986 47.84839828 -0.11337433 46.76735321 -0.11329651 45.65354919 C-0.10813522 44.4775264 -0.10297394 43.3015036 -0.09765625 42.08984375 C-0.0962413 40.89267227 -0.09482635 39.69550079 -0.09336853 38.46205139 C-0.08774979 34.62050934 -0.07519411 30.77902457 -0.0625 26.9375 C-0.05748741 24.34049563 -0.05292409 21.74349035 -0.04882812 19.14648438 C-0.03862313 12.76428284 -0.01905136 6.3822059 0 0 Z " fill="#FEFEFE" transform="translate(20,21)"/>
<path d="M0 0 C3.5 0.125 3.5 0.125 4.5 1.125 C4.75342236 5.43147636 4.68522638 9.74945054 4.6875 14.0625 C4.69974609 15.28130859 4.71199219 16.50011719 4.72460938 17.75585938 C4.72750977 19.49899414 4.72750977 19.49899414 4.73046875 21.27734375 C4.73457764 22.34976318 4.73868652 23.42218262 4.74291992 24.52709961 C4.5 27.125 4.5 27.125 2.5 29.125 C-0.625 29.25 -0.625 29.25 -3.5 29.125 C-4.85048039 26.42403923 -4.62963577 24.29773483 -4.6328125 21.27734375 C-4.63410156 20.11525391 -4.63539063 18.95316406 -4.63671875 17.75585938 C-4.63285156 16.53705078 -4.62898437 15.31824219 -4.625 14.0625 C-4.62886719 12.83982422 -4.63273438 11.61714844 -4.63671875 10.35742188 C-4.63542969 9.19662109 -4.63414062 8.03582031 -4.6328125 6.83984375 C-4.63168457 5.76855225 -4.63055664 4.69726074 -4.62939453 3.59350586 C-4.4259707 -0.28728357 -4.03053342 0.14394762 0 0 Z " fill="#FBFBFB" transform="translate(12.5,33.875)"/>
</svg>
